<svg height="511pt" viewBox="0 -70 511.99649 511" width="511pt" xmlns="http://www.w3.org/2000/svg"><path d="m503.464844 278.765625c-23.695313.867187-46.949219 6.679687-68.265625 17.066406-24.148438 12.03125-68.265625 68.265625-179.199219 68.265625-4.351562 0-8.621094-.082031-12.800781-.253906-101.546875-4.097656-143.1875-56.492188-166.398438-68.011719-21.320312-10.386719-44.570312-16.199219-68.269531-17.066406 18.96875-3.675781 34.917969-16.433594 42.667969-34.132813-15.820313-.332031-30.984375-6.394531-42.667969-17.066406 33.90625-13.917968 61.03125-40.527344 75.605469-74.15625.429687-.851562.769531-1.707031 1.195312-2.644531 3.910157-9.050781 8.472657-17.808594 13.652344-26.195313l39.9375-40.363281h242.945313c18.710937 19.394531 33.875 41.921875 44.796874 66.558594.429688.9375.769532 1.792969 1.195313 2.644531 14.574219 33.628906 41.703125 60.238282 75.605469 74.15625-11.683594 10.671875-26.84375 16.734375-42.664063 17.066406 7.746094 17.699219 23.699219 30.457032 42.664063 34.132813zm0 0" fill="#545c60"/><path d="m477.867188 278.765625c-23.699219.867187-46.949219 6.679687-68.269532 17.066406-23.210937 11.519531-64.851562 63.914063-166.398437 68.011719-101.546875-4.097656-143.1875-56.492188-166.398438-68.011719-21.320312-10.386719-44.570312-16.199219-68.269531-17.066406 18.96875-3.675781 34.917969-16.433594 42.667969-34.132813-15.820313-.332031-30.984375-6.394531-42.667969-17.066406 33.90625-13.917968 61.03125-40.527344 75.605469-74.15625.429687-.851562.769531-1.707031 1.195312-2.644531 3.910157-9.050781 8.472657-17.808594 13.652344-26.195313l39.9375-40.363281h217.34375c18.714844 19.394531 33.878906 41.921875 44.800781 66.558594.425782.9375.765625 1.792969 1.195313 2.644531 14.574219 33.628906 41.699219 60.238282 75.605469 74.15625-11.683594 10.671875-26.847657 16.734375-42.667969 17.066406 7.75 17.699219 23.699219 30.457032 42.667969 34.132813zm0 0" fill="#7f8e94"/><path d="m207.617188 360.175781c-76.203126-12.972656-110.507813-54.273437-130.816407-64.34375-21.320312-10.386719-44.570312-16.199219-68.269531-17.066406 10.585938-2.511719 20.410156-7.542969 28.632812-14.664063 2.917969-2.585937 5.566407-5.457031 7.90625-8.574218 2.175782-3.324219 4.140626-6.777344 5.882813-10.347656 1.785156-2.632813 3.882813-5.039063 6.246094-7.171876 2.515625-2.636718 5.097656-5.203124 7.75-7.703124 6.503906-6.203126 13.429687-11.941407 20.730469-17.183594 8.160156-5.964844 17.027343-10.894532 26.398437-14.675782 7.773437-3.167968 16.0625-4.867187 24.453125-5.011718 32.257812 0 59.5625 111.957031 71.085938 166.742187zm0 0" fill="#607d8b"/><path d="m304.382812 360.175781c76.203126-12.972656 110.507813-54.273437 130.816407-64.34375 21.316406-10.386719 44.570312-16.199219 68.265625-17.066406-10.585938-2.511719-20.40625-7.542969-28.628906-14.664063-2.917969-2.585937-5.570313-5.457031-7.90625-8.574218-2.175782-3.324219-4.140626-6.777344-5.882813-10.347656-1.785156-2.632813-3.882813-5.039063-6.246094-7.171876-2.515625-2.636718-5.101562-5.203124-7.75-7.703124-6.503906-6.203126-13.433593-11.941407-20.730469-17.183594-8.160156-5.964844-17.027343-10.894532-26.402343-14.675782-7.769531-3.167968-16.0625-4.867187-24.453125-5.011718-32.253906 0-59.5625 111.957031-71.082032 166.742187zm0 0" fill="#607d8b"/><path d="m367.273438 340.121094c-10.382813 5.078125-21.136719 9.355468-32.171876 12.800781-25.660156 7.660156-52.324218 11.429687-79.101562 11.175781-26.78125.253906-53.445312-3.515625-79.105469-11.175781-11.03125-3.445313-21.785156-7.722656-32.167969-12.800781-32-44.457032-8.195312-104.023438-8.195312-104.023438s34.132812 17.070313 59.734375 0c18.191406-12.085937 38.433594-20.761718 59.734375-25.597656 21.300781 4.835938 41.539062 13.511719 59.734375 25.597656 25.597656 17.070313 59.730469 0 59.730469 0s23.808594 59.566406-8.191406 104.023438zm0 0" fill="#f5f5f5"/><path d="m427.859375 153.410156c41.816406-28.925781 49.324219-93.523437 50.261719-126.804687.144531-5.207031-2.097656-10.199219-6.082032-13.554688-3.988281-3.355469-9.289062-4.710937-14.398437-3.683593-35.230469 6.402343-68.757813 20.019531-98.476563 39.992187-5.542968 3.921875-12.914062 4.085937-18.625.414063-24.984374-16.972657-54.34375-26.351563-84.539062-27.007813-30.195312.65625-59.554688 10.035156-84.539062 27.007813-5.710938 3.671874-13.082032 3.507812-18.625-.414063-29.71875-19.972656-63.25-33.589844-98.480469-39.992187-5.109375-1.027344-10.40625.328124-14.394531 3.683593-3.988282 3.355469-6.226563 8.347657-6.085938 13.554688.941406 33.28125 8.449219 97.878906 50.261719 126.804687" fill="#7f8e94"/><path d="m178.941406 45.207031c-5.539062 3.414063-10.816406 7.238281-15.785156 11.4375l-27.648438 23.125c-3.585937 2.960938-6.980468 6.15625-10.152343 9.558594-16.558594 18.191406-30.074219 38.9375-40.023438 61.4375-.425781.9375-.765625 1.792969-1.195312 2.644531-41.8125-28.925781-49.320313-93.523437-50.261719-126.804687-.140625-5.207031 2.097656-10.199219 6.085938-13.554688 3.988281-3.355469 9.285156-4.710937 14.394531-3.683593 35.246093 6.371093 68.78125 20 98.476562 40.023437 5.53125 3.925781 12.894531 4.09375 18.601563.425781 2.476562-1.621094 4.949218-3.15625 7.507812-4.609375zm0 0" fill="#f5f5f5"/><path d="m478.121094 26.605469c-.9375 33.28125-8.445313 97.878906-50.261719 126.804687-.425781-.851562-.765625-1.707031-1.195313-2.644531-1.960937-4.691406-4.265624-9.386719-6.824218-14.164063-9.085938-17.0625-20.234375-32.9375-33.195313-47.273437-3.175781-3.402344-6.566406-6.597656-10.15625-9.558594l-27.644531-23.125c-3.996094-3.34375-8.183594-6.453125-12.546875-9.300781-.597656-.34375-1.109375-.769531-1.621094-1.109375.617188.257813 1.191407.601563 1.707031 1.023437 1.441407.769532 2.839844 1.625 4.183594 2.558594 5.707032 3.667969 13.066406 3.5 18.601563-.425781 26.050781-17.671875 55.203125-30.265625 85.929687-37.121094 4.011719-1.023437 8.191406-1.960937 12.542969-2.902343 5.109375-1.027344 10.410156.328124 14.398437 3.683593 3.984376 3.355469 6.226563 8.347657 6.082032 13.554688zm0 0" fill="#cfd8dc"/><path d="m452.265625 26.605469c-.769531 27.820312-6.144531 77.484375-32.425781 109.996093-9.085938-17.0625-20.234375-32.9375-33.195313-47.273437-3.175781-3.402344-6.566406-6.597656-10.15625-9.558594l-27.644531-23.125c-3.996094-3.34375-8.183594-6.453125-12.546875-9.300781 0-.046875.039063-.085938.085937-.085938 1.441407.769532 2.839844 1.625 4.183594 2.558594 5.707032 3.667969 13.066406 3.5 18.601563-.425781 26.050781-17.671875 55.203125-30.265625 85.929687-37.121094 4.644532 3.273438 7.339844 8.65625 7.167969 14.335938zm0 0" fill="#f5f5f5"/><path d="m290.132812 287.300781c0 18.851563-15.28125 34.132813-34.132812 34.132813s-34.132812-15.28125-34.132812-34.132813zm0 0" fill="#f5f5f5"/><path d="m273.066406 219.03125s17.066406 0 42.667969 17.066406c25.597656 17.070313 85.332031 17.070313 85.332031-51.199218 0-68.265626-119.46875-68.265626-145.066406-68.265626-25.601562 0-145.066406 0-145.066406 68.265626 0 68.269531 59.730468 68.269531 85.332031 51.199218 25.601563-17.066406 42.667969-17.066406 42.667969-17.066406zm0 0" fill="#3f51b5"/><path d="m187.734375 176.367188c0 9.425781-7.644531 17.066406-17.070313 17.066406-9.421874 0-17.066406-7.640625-17.066406-17.066406 0-9.425782 7.644532-17.066407 17.066406-17.066407 9.425782 0 17.070313 7.640625 17.070313 17.066407zm0 0" fill="#f5f5f5"/><path d="m358.398438 176.367188c0 9.425781-7.640626 17.066406-17.066407 17.066406s-17.066406-7.640625-17.066406-17.066406c0-9.425782 7.640625-17.066407 17.066406-17.066407s17.066407 7.640625 17.066407 17.066407zm0 0" fill="#f5f5f5"/><path d="m245.769531 249.070312-12.789062-13.652343c-6.324219-6.75-.308594-16.386719 10.230469-16.386719h25.578124c10.535157 0 16.554688 9.636719 10.230469 16.386719l-12.789062 13.652343c-5.726563 5.460938-14.734375 5.460938-20.460938 0zm0 0" fill="#607d8b"/><path d="m427.859375 153.410156h-25.34375c-.425781-.851562-.765625-1.707031-1.195313-2.644531-1.960937-4.691406-4.265624-9.386719-6.824218-14.164063-9.085938-17.0625-20.234375-32.9375-33.195313-47.273437-3.175781-3.402344-6.566406-6.597656-10.15625-9.558594l-27.648437-23.125c-3.992188-3.34375-8.179688-6.453125-12.542969-9.300781-.597656-.34375-1.023437-.683594-1.535156-1.027344-20.03125-12.457031-42.601563-20.273437-66.046875-22.867187 4.191406-.484375 8.410156-.714844 12.628906-.683594 27.90625.535156 55.140625 8.679687 78.761719 23.550781.511719.34375.9375.683594 1.535156 1.027344 4.363281 2.847656 8.550781 5.957031 12.546875 9.300781l27.644531 23.125c3.589844 2.960938 6.980469 6.15625 10.15625 9.558594 12.960938 14.335937 24.109375 30.210937 33.195313 47.273437 2.558594 4.777344 4.863281 9.472657 6.824218 14.164063.429688.9375.769532 1.792969 1.195313 2.644531zm0 0" fill="#545c60"/><path d="m256 372.632812c-60.304688 1.585938-119.140625-18.71875-165.625-57.167968-5.472656-4.445313-11.28125-8.453125-17.378906-11.996094-20.140625-9.789062-42.089844-15.296875-64.464844-16.167969-4.308594-.003906-7.9375-3.214843-8.4648438-7.492187-.5273442-4.273438 2.2148438-8.273438 6.3945318-9.320313 12.082031-2.65625 22.933593-9.269531 30.828124-18.792969-12.996093-2.835937-25.003906-9.082031-34.789062-18.097656-2.089844-2.089844-2.949219-5.113281-2.273438-7.992187.679688-2.878907 2.800782-5.199219 5.605469-6.136719 31.554688-13.289062 56.800781-38.191406 70.523438-69.5625l1.207031-2.664062c11.335938-25.5 27.039062-48.824219 46.398438-68.925782 3.277343-3.285156 8.578124-3.347656 11.9375-.144531 3.355468 3.203125 3.535156 8.503906.40625 11.929687-17.996094 18.667969-32.589844 40.332032-43.125 64.019532l-.445313 1.011718c-.316406.722657-.621094 1.417969-.972656 2.109376-13.566407 30.632812-36.867188 55.933593-66.285157 71.972656 7.863282 4.410156 16.707032 6.777344 25.722657 6.882812 2.742187.003906 5.316406 1.324219 6.921875 3.546875 1.601562 2.226563 2.039062 5.085938 1.171875 7.6875-4.230469 10.597657-11.355469 19.789063-20.5625 26.53125 14.515625 2.96875 28.589843 7.785157 41.882812 14.335938 7.0625 3.964843 13.773438 8.53125 20.054688 13.652343 43.585937 36.082032 98.765625 55.160157 155.332031 53.714844 56.5625 1.445313 111.738281-17.632812 155.328125-53.710937 6.28125-5.125 12.996094-9.695313 20.066406-13.660157 13.285157-6.550781 27.359375-11.367187 41.871094-14.335937-9.207031-6.738281-16.335937-15.933594-20.566406-26.527344-.863281-2.605469-.425781-5.464843 1.179687-7.6875 1.601563-2.226562 4.179688-3.542969 6.921875-3.546875 9.03125-.082031 17.902344-2.441406 25.78125-6.859375-29.523437-16.128906-52.898437-41.550781-66.5-72.320312-.195312-.367188-.5-1.0625-.816406-1.785157l-.371094-.839843c-10.546875-23.753907-25.167969-45.476563-43.199219-64.195313-2.195312-2.1875-3.03125-5.390625-2.183593-8.375.847656-2.980468 3.242187-5.265625 6.261719-5.972656 3.015624-.710938 6.179687.273438 8.261718 2.566406 19.398438 20.148438 35.128906 43.535156 46.476563 69.097656l.976562 2.171876c13.726563 31.503906 39.039063 56.527343 70.699219 69.894531 2.792969.945312 4.902344 3.265625 5.578125 6.140625.671875 2.871094-.183594 5.890625-2.265625 7.980468-9.78125 9.011719-21.785156 15.257813-34.78125 18.09375 7.894531 9.519532 18.742188 16.132813 30.816406 18.792969 4.179688 1.046875 6.921875 5.042969 6.398438 9.316407-.523438 4.273437-4.148438 7.488281-8.453125 7.496093-22.371094.90625-44.316407 6.40625-64.464844 16.164063-6.101563 3.539062-11.917969 7.554687-17.390625 12-46.484375 38.449218-105.324219 58.753906-165.625 57.167968zm0 0"/><path d="m427.871094 161.945312c-3.734375.003907-7.039063-2.421874-8.152344-5.988281-1.117188-3.5625.214844-7.4375 3.289062-9.5625 39.761719-27.515625 45.820313-93.105469 46.582032-120.027343.0625-2.640626-1.085938-5.160157-3.117188-6.847657-1.964844-1.667969-4.589844-2.332031-7.109375-1.792969-34.066406 6.191407-66.496093 19.328126-95.269531 38.59375-8.402344 5.894532-19.535156 6.140626-28.191406.621094-23.617188-16.046875-51.359375-24.949218-79.902344-25.640625-28.546875.691407-56.285156 9.59375-79.90625 25.640625-8.65625 5.523438-19.785156 5.277344-28.191406-.621094-28.777344-19.265624-61.210938-32.402343-95.28125-38.59375-2.515625-.527343-5.132813.132813-7.097656 1.789063-2.039063 1.699219-3.1875 4.238281-3.117188 6.890625.757812 26.878906 6.820312 92.46875 46.585938 119.984375 3.875 2.683594 4.84375 7.996094 2.164062 11.875-2.683594 3.875-7.996094 4.84375-11.875 2.164063-44.519531-30.800782-52.898438-96.914063-53.929688-133.582032-.21875-7.816406 3.144532-15.304687 9.128907-20.335937 5.984375-5.03125 13.941406-7.058594 21.601562-5.5 36.375 6.679687 70.988281 20.765625 101.6875 41.382812 2.699219 1.898438 6.277344 1.984375 9.058594.210938 26.378906-17.835938 57.335937-27.6875 89.171875-28.371094 31.832031.683594 62.796875 10.539063 89.171875 28.375 2.785156 1.765625 6.359375 1.683594 9.054687-.214844 30.699219-20.617187 65.308594-34.699219 101.675782-41.378906 7.660156-1.5625 15.609375.453125 21.597656 5.476563 5.988281 5.023437 9.355469 12.503906 9.148438 20.316406-1.03125 36.707031-9.410157 102.820312-53.929688 133.621094-1.421875.988281-3.117188 1.515624-4.847656 1.515624zm0 0"/><path d="m130.132812 92.738281c-2.078124.003907-4.089843-.753906-5.644531-2.132812-13.96875-12.597657-30.984375-21.332031-49.363281-25.335938-2.988281-.601562-5.433594-2.75-6.40625-5.636719-.976562-2.890624-.335938-6.078124 1.679688-8.367187 2.011718-2.289063 5.09375-3.332031 8.085937-2.730469 21.324219 4.597656 41.082031 14.691406 57.300781 29.28125 2.65625 2.347656 3.585938 6.097656 2.328125 9.414063-1.257812 3.316406-4.433593 5.507812-7.980469 5.507812zm0 0"/><path d="m381.871094 92.738281c-3.550782.003907-6.730469-2.191406-7.984375-5.507812-1.257813-3.320313-.332031-7.070313 2.328125-9.421875 16.222656-14.585938 35.976562-24.675782 57.304687-29.273438 2.988281-.597656 6.070313.441406 8.085938 2.730469s2.65625 5.480469 1.679687 8.367187c-.976562 2.890626-3.417968 5.039063-6.40625 5.636719-18.378906 4.003907-35.394531 12.738281-49.363281 25.335938-1.558594 1.378906-3.566406 2.136719-5.644531 2.132812zm0 0"/><path d="m170.664062 201.964844c-14.136718 0-25.597656-11.460938-25.597656-25.597656 0-14.140626 11.460938-25.601563 25.597656-25.601563 14.140626 0 25.601563 11.460937 25.601563 25.601563-.015625 14.132812-11.46875 25.582031-25.601563 25.597656zm0-34.132813c-4.710937 0-8.53125 3.820313-8.53125 8.535157 0 4.710937 3.820313 8.53125 8.53125 8.53125 4.714844 0 8.535157-3.820313 8.535157-8.53125-.007813-4.710938-3.824219-8.527344-8.535157-8.535157zm0 0"/><path d="m341.332031 201.964844c-14.136719 0-25.597656-11.460938-25.597656-25.597656 0-14.140626 11.460937-25.601563 25.597656-25.601563 14.140625 0 25.601563 11.460937 25.601563 25.601563-.015625 14.132812-11.46875 25.582031-25.601563 25.597656zm0-34.132813c-4.710937 0-8.53125 3.820313-8.53125 8.535157 0 4.710937 3.820313 8.53125 8.53125 8.53125 4.714844 0 8.535157-3.820313 8.535157-8.53125-.007813-4.710938-3.824219-8.527344-8.535157-8.535157zm0 0"/><path d="m187.734375 201.964844h-34.136719c-4.710937 0-8.53125-3.820313-8.53125-8.53125 0-4.714844 3.820313-8.535156 8.53125-8.535156h34.136719c4.710937 0 8.53125 3.820312 8.53125 8.535156 0 4.710937-3.820313 8.53125-8.53125 8.53125zm0 0"/><path d="m358.398438 201.964844h-34.132813c-4.710937 0-8.53125-3.820313-8.53125-8.53125 0-4.714844 3.820313-8.535156 8.53125-8.535156h34.132813c4.714843 0 8.535156 3.820312 8.535156 8.535156 0 4.710937-3.820313 8.53125-8.535156 8.53125zm0 0"/><path d="m256 261.699219c-6.1875.097656-12.144531-2.363281-16.457031-6.800781l-12.792969-13.652344c-4.832031-4.957032-6.199219-12.339844-3.46875-18.699219 3.660156-7.617187 11.484375-12.347656 19.929688-12.046875h25.574218c8.449219-.300781 16.269532 4.429688 19.929688 12.050781 2.734375 6.359375 1.367187 13.738281-3.464844 18.699219l-12.792969 13.652344c-4.316406 4.433594-10.269531 6.890625-16.457031 6.796875zm-12.789062-34.132813c-2.910157 0-4.179688 1.417969-4.285157 1.816406l13.074219 13.855469v.003907c2.390625 1.714843 5.609375 1.714843 8 0l12.792969-13.660157c.175781-.597656-1.09375-2.015625-4.007813-2.015625zm0 0"/><path d="m256 329.964844c-23.554688-.027344-42.640625-19.113282-42.667969-42.664063 0-4.714843 3.820313-8.535156 8.535157-8.535156h68.265624c4.710938 0 8.53125 3.820313 8.53125 8.535156-.027343 23.550781-19.113281 42.636719-42.664062 42.664063zm-24.136719-34.132813c3.613281 10.230469 13.285157 17.070313 24.136719 17.070313s20.523438-6.839844 24.136719-17.070313zm0 0"/><path d="m162.742188 254.121094c-10.234376.113281-20.339844-2.296875-29.417969-7.019532-14.109375-7.550781-30.925781-24.472656-30.925781-62.203124 0-35.035157 26.652343-76.800782 153.601562-76.800782 4.710938 0 8.53125 3.824219 8.53125 8.535156 0 4.710938-3.820312 8.535157-8.53125 8.535157-50.992188 0-136.535156 7.757812-136.535156 59.730469 0 23.175781 7.574218 39.480468 21.914062 47.15625 16.148438 7.582031 35.046875 6.433593 50.152344-3.054688 26.972656-17.980469 45.390625-18.5 47.402344-18.5 4.710937-.023438 8.550781 3.78125 8.570312 8.492188.023438 4.714843-3.777344 8.550781-8.492187 8.574218-13.800781 1.875-26.886719 7.257813-38.011719 15.632813-11.453125 7.210937-24.726562 11-38.257812 10.921875zm0 0"/><path d="m349.257812 254.121094c-13.535156.078125-26.808593-3.710938-38.257812-10.921875-11.121094-8.390625-24.21875-13.773438-38.023438-15.632813-3.050781-.015625-5.859374-1.65625-7.371093-4.304687-1.507813-2.648438-1.492188-5.902344.046875-8.535157 1.539062-2.632812 4.363281-4.242187 7.414062-4.226562 2.011719 0 20.429688.519531 47.398438 18.5 15.113281 9.476562 34.003906 10.628906 50.15625 3.054688 14.335937-7.675782 21.910156-23.980469 21.910156-47.15625 0-51.972657-85.539062-59.730469-136.53125-59.730469-4.714844 0-8.535156-3.824219-8.535156-8.535157 0-4.710937 3.820312-8.535156 8.535156-8.535156 126.949219 0 153.597656 41.765625 153.597656 76.800782 0 37.730468-16.816406 54.652343-30.921875 62.203124-9.082031 4.722657-19.183593 7.132813-29.417969 7.019532zm0 0"/></svg>